<svg width="186" height="22" viewBox="0 0 186 22" fill="none" xmlns="http://www.w3.org/2000/svg">
<g clip-path="url(#clip0_1931_10696)">
<path d="M30.6324 17.1159H33.5666V4.79883H30.6324V9.54412H25.3171V4.79883H22.3828V17.1159H25.3171V12.5926V12.3558L30.6324 12.3706V12.5926V17.1159Z" fill="#191919"/>
<path d="M8.19026 12.1834L2.64282 4.47852L0 5.83502V17.1162H2.87005V9.68748L8.68425 17.5157H8.69413L11.09 16.2678V4.79914H8.19026V12.1834Z" fill="#191919"/>
<path d="M47.7294 9.68748L53.5436 17.5207H53.5535L55.9493 16.2678V4.79914H53.0496V12.1834L47.4973 4.47852L44.8594 5.83502V17.1162H47.7294V9.68748Z" fill="#191919"/>
<path d="M72.0114 0.550781V21.4212H67.0469V0.550781H72.0114Z" fill="#191919"/>
<path d="M76.5781 0.550781H81.4241L90.2763 13.0454V0.550781H95.2409V21.4212H90.3652L81.513 8.89697V21.4212H76.5781V0.550781Z" fill="#191919"/>
<path d="M101.054 21.5346C100.185 21.214 99.1378 20.7207 98.1498 19.5073C97.6855 18.9252 97.3348 18.2889 96.9297 17.3615L101.311 15.275C101.544 15.7979 101.865 16.375 102.181 16.6956C102.556 17.1001 103.109 17.2481 103.692 17.2481C104.216 17.2481 104.883 16.9571 105.174 16.4638C105.406 16.0593 105.55 15.566 105.579 14.6979L105.609 13.8001V0.550781H110.574V14.6387C110.574 15.6252 110.485 16.5526 110.223 17.3911C109.615 19.2754 108.395 20.5777 106.622 21.4212C105.723 21.8257 104.591 22.0033 103.544 22.0033C102.704 22.0033 101.86 21.8602 101.05 21.5396L101.054 21.5346Z" fill="#191919"/>
<path d="M114.609 0.492188H130.343V5.12896H119.544V8.60654L129.063 8.57694V13.1841L119.544 13.2137V16.7209H130.343V21.3577H114.609V0.492188Z" fill="#191919"/>
<path d="M139.324 0.550781V21.4212H134.359V0.550781H139.324Z" fill="#191919"/>
<path d="M143.898 0.550781H148.744L157.597 13.0454V0.550781H162.561V21.4212H157.686L148.833 8.89697V21.4212H143.898V0.550781Z" fill="#191919"/>
<path d="M168.496 18.2601C166.841 16.3462 165.883 13.8255 165.883 10.9843C165.883 7.59055 167.217 4.69504 169.484 2.69235C171.46 0.980688 174.098 -0.00585938 177.091 -0.00585938C179.038 -0.00585938 180.747 0.344365 182.145 0.980688C183.335 1.53315 184.61 2.4901 185.687 3.82194L182.086 6.83584C181.33 6.08114 180.574 5.5336 179.675 5.18338C178.919 4.89235 178.079 4.7197 177.21 4.7197C175.382 4.7197 174.103 5.24257 173.001 6.14033C171.638 7.26993 170.823 8.95199 170.823 10.9793C170.823 12.7206 171.406 14.2843 172.448 15.3843C173.579 16.6027 175.293 17.239 177.21 17.239C178.198 17.239 179.127 17.0367 179.882 16.6865C180.841 16.282 181.651 15.6408 182.377 14.743L186.008 17.4659C185.049 18.8569 183.977 19.9273 182.639 20.682C181.157 21.5206 179.359 21.9596 177.096 21.9596C173.554 21.9596 170.536 20.539 168.506 18.2502L168.496 18.2601Z" fill="#191919"/>
</g>
<defs>
<clipPath id="clip0_1931_10696">
<rect width="186" height="22" fill="white"/>
</clipPath>
</defs>
</svg>
